# xmcd CD database file
#
# Track frame offsets:
#	150
#	33440
#	65535
#	83165
#	106133
#	124656
#	135486
#	151134
#	161117
#	180837
#
# Disc length: 2567 seconds
#
# Revision: 0
# Processed by: cddbd v1.5.2PL0 Copyright (c) Steve Scherf et al.
# Submitted via: CDex 1.51
#
DISCID=730a050a
DTITLE=100NKA - POTRAWY sTRAWY
DYEAR=2007
DGENRE=Jazz
TTITLE0=100NKA - ALPHAVILLE
TTITLE1=100NKA - PINK TROJE tribute to ROZOWY FREUD
TTITLE2=100NKA - KUKUPIPIP
TTITLE3=100NKA - ZWOLLE
TTITLE4=100NKA - UPADEK CX`a
TTITLE5=100NKA - BMW czyli bezlitosne mietolenie wora
TTITLE6=100NKA - NIEPOKOJ PODCZAS DRENAZU
TTITLE7=100NKA - LATE NIGHT NONSENSE
TTITLE8=100NKA - KON I MYSZ
TTITLE9=100NKA - SPOSOB ELIMINOWANIA KIELBASY
EXTD=YEAR: 2007
EXTT0=
EXTT1=
EXTT2=
EXTT3=
EXTT4=
EXTT5=
EXTT6=
EXTT7=
EXTT8=
EXTT9=
PLAYORDER=
